<svg width="24" height="24" viewBox="0 0 24 24" fill="none" xmlns="http://www.w3.org/2000/svg">
<path d="M12 2V3" stroke="white" stroke-width="1.25" stroke-linecap="round"/>
<path d="M12 21V22" stroke="white" stroke-width="1.25" stroke-linecap="round"/>
<path d="M22 12H21" stroke="white" stroke-width="1.25" stroke-linecap="round"/>
<path d="M3 12H2" stroke="white" stroke-width="1.25" stroke-linecap="round"/>
<path d="M19.071 4.92969L18.6782 5.32252" stroke="white" stroke-width="1.25" stroke-linecap="round"/>
<path d="M5.32155 18.6777L4.92871 19.0706" stroke="white" stroke-width="1.25" stroke-linecap="round"/>
<path d="M19.071 19.0703L18.6782 18.6775" stroke="white" stroke-width="1.25" stroke-linecap="round"/>
<path d="M5.32155 5.32227L4.92871 4.92943" stroke="white" stroke-width="1.25" stroke-linecap="round"/>
<path d="M6.34141 10C6.12031 10.6256 6 11.2987 6 12C6 15.3137 8.68629 18 12 18C15.3137 18 18 15.3137 18 12C18 8.68629 15.3137 6 12 6C11.2987 6 10.6256 6.12031 10 6.34141" stroke="white" stroke-width="1.25" stroke-linecap="round"/>
</svg>
