<svg width="20" height="20" viewBox="0 0 20 20" fill="none" xmlns="http://www.w3.org/2000/svg">
<path d="M5.83331 10C7.21403 10 8.33331 8.88071 8.33331 7.5C8.33331 6.11929 7.21403 5 5.83331 5C4.4526 5 3.33331 6.11929 3.33331 7.5C3.33331 8.88071 4.4526 10 5.83331 10Z" stroke="#394867" stroke-width="1.5"/>
<path d="M6.66665 11.6667C6.66665 11.6667 6.24998 11.6667 4.99998 11.6667C3.74998 11.6667 0.833313 12.5 0.833313 14.5834C0.833313 16.1942 0.833313 17.5 4.16666 17.5C6.66665 17.5 7.49998 17.5 7.49998 17.5" stroke="#394867" stroke-width="1.5" stroke-linecap="round"/>
<path d="M13.75 9.16665C15.3608 9.16665 16.6666 7.86081 16.6666 6.24998C16.6666 4.63915 15.3608 3.33331 13.75 3.33331C12.1391 3.33331 10.8333 4.63915 10.8333 6.24998C10.8333 7.86081 12.1391 9.16665 13.75 9.16665Z" stroke="#394867" stroke-width="1.5"/>
<path d="M19.165 14.537C19.1666 14.4154 19.1666 14.2918 19.1666 14.1666C19.1666 12.3257 16.7415 10.8333 13.75 10.8333C10.7584 10.8333 8.33331 12.3257 8.33331 14.1666C8.33331 16.0076 8.33331 17.5 13.75 17.5C15.2606 17.5 16.3498 17.3839 17.1354 17.1766" stroke="#394867" stroke-width="1.5" stroke-linecap="round"/>
</svg>
