<svg width="36" height="20" viewBox="0 0 36 20" fill="none" xmlns="http://www.w3.org/2000/svg">
<mask id="path-1-inside-1_69_4162" fill="white">
<path d="M0 0H36V20H0V0Z"/>
</mask>
<path d="M35 0V20H37V0H35Z" fill="#394867" mask="url(#path-1-inside-1_69_4162)"/>
<path d="M18 8.33335C19.841 8.33335 21.3334 6.84097 21.3334 5.00002C21.3334 3.15907 19.841 1.66669 18 1.66669C16.1591 1.66669 14.6667 3.15907 14.6667 5.00002C14.6667 6.84097 16.1591 8.33335 18 8.33335Z" stroke="#394867" stroke-width="1.5"/>
<path d="M24.6646 15C24.6666 14.8631 24.6666 14.7241 24.6666 14.5833C24.6666 12.5122 21.6819 10.8333 18 10.8333C14.3181 10.8333 11.3333 12.5122 11.3333 14.5833C11.3333 16.6544 11.3333 18.3333 18 18.3333C19.8591 18.3333 21.1998 18.2027 22.1666 17.9695" stroke="#394867" stroke-width="1.5" stroke-linecap="round"/>
</svg>
